<svg width="918" height="161" viewBox="0 0 918 161" fill="none" xmlns="http://www.w3.org/2000/svg">
<path d="M695.99 4.85725V38.2301C695.99 40.9194 694.043 43.0873 691.622 43.0873H654.446C652.025 43.0873 650.078 45.2672 650.078 47.9564V53.8444C650.078 56.5218 652.025 58.7016 654.446 58.7016H691.622C694.043 58.7016 695.99 60.8696 695.99 63.5589V97.4411C695.99 100.13 694.043 102.31 691.622 102.31H654.446C652.025 102.31 650.078 104.478 650.078 107.167V113.055C650.078 115.733 652.025 117.913 654.446 117.913H691.622C694.043 117.913 695.99 120.081 695.99 122.77V156.143C695.99 158.832 694.043 161 691.622 161H617.508C615.098 161 613.14 158.832 613.14 156.143V4.85725C613.14 2.16799 615.098 0 617.508 0H691.622C694.043 0 695.99 2.16799 695.99 4.85725Z" fill="#FCF7F1"/>
<path d="M519.678 4.85725V148.833C519.678 150.124 519.215 151.357 518.396 152.269L511.808 159.578C510.989 160.491 509.885 161 508.722 161H442.715C441.552 161 440.448 160.491 439.629 159.578L433.041 152.269C432.222 151.357 431.759 150.124 431.759 148.833V4.85725C431.759 2.16799 433.718 0 436.139 0H464.329C466.739 0 468.697 2.16799 468.697 4.85725V113.055C468.697 115.733 470.656 117.913 473.066 117.913H478.371C480.781 117.913 482.739 115.733 482.739 113.055V4.85725C482.739 2.16799 484.698 0 487.107 0H515.298C517.719 0 519.678 2.16799 519.678 4.85725Z" fill="#FCF7F1"/>
<path d="M265.311 7.91376V153.086C265.311 157.458 262.047 161 258.047 161H238.604C234.616 161 231.364 157.458 231.364 153.086V129.558C231.364 128.445 230.675 127.497 229.856 127.497H191.659C189.677 127.497 187.766 126.608 186.413 125.045L182.413 120.483C181.107 119.003 180.383 117.06 180.383 114.986V7.91376C180.383 3.55408 183.636 0 187.648 0H207.09C211.078 0 214.331 3.55408 214.331 7.91376V85.3573C214.331 86.459 215.031 87.4186 215.826 87.4186H229.856C230.675 87.4186 231.364 86.4827 231.364 85.3573V7.91376C231.364 3.55408 234.616 0 238.604 0H258.047C262.047 0 265.311 3.55408 265.311 7.91376Z" fill="#FCF7F1"/>
<path d="M425.646 8.7312C426.465 9.64341 426.928 10.8873 426.928 12.1787V156.131C426.928 158.82 424.97 161 422.548 161H394.358C391.936 161 389.978 158.82 389.978 156.131V52.8255C389.978 47.447 386.049 43.0873 381.218 43.0873H380.34C377.918 43.0873 375.96 45.2672 375.96 47.9683V156.131C375.96 158.82 373.989 161 371.58 161H343.84C341.419 161 339.461 158.82 339.461 156.131V47.9683C339.461 45.2672 337.49 43.0873 335.081 43.0873H329.822C327.401 43.0873 325.443 45.2672 325.443 47.9683V156.131C325.443 158.82 323.484 161 321.063 161H292.86C290.439 161 288.48 158.82 288.48 156.131V4.8691C288.48 2.17984 290.439 0 292.86 0H415.972C417.136 0 418.251 0.509419 419.07 1.42163L425.646 8.7312Z" fill="#FCF7F1"/>
<path d="M84.9037 7.91376V153.086C84.9037 157.458 81.6514 161 77.6632 161H58.2207C54.2206 161 50.9565 157.458 50.9565 153.086V129.558C50.9565 128.456 50.268 127.497 49.4728 127.497H11.2524C9.29395 127.497 7.38293 126.608 6.01792 125.056L2.00597 120.483C0.70031 118.991 0 117.036 0 114.986V7.91376C0 3.55408 3.24042 0 7.2405 0H26.6949C30.7068 0 33.9591 3.55408 33.9591 7.91376V85.3573C33.9591 86.459 34.6594 87.4186 35.4428 87.4186H49.4728C50.268 87.4186 50.9565 86.459 50.9565 85.3573V7.91376C50.9565 3.55408 54.2206 0 58.2207 0H77.6632C81.6514 0 84.9037 3.55408 84.9037 7.91376Z" fill="#FCF7F1"/>
<path d="M167.873 0H101.462C99.4678 0 97.5568 0.900368 96.2511 2.42862L92.168 7.01339C90.8742 8.50611 90.1739 10.449 90.1739 12.4985V153.086C90.1739 157.458 93.4261 161 97.4262 161H163.837C165.784 161 167.695 160.123 169.095 158.56L173.119 153.963C174.389 152.494 175.113 150.504 175.113 148.501V7.91376C175.113 3.55408 171.873 0 167.873 0ZM141.154 118.849C141.154 119.95 140.442 120.91 139.647 120.91H125.64C124.833 120.91 124.133 119.95 124.133 118.849V42.1277C124.133 41.0378 124.833 40.0782 125.64 40.0782H139.647C140.442 40.0782 141.154 41.0378 141.154 42.1277V118.849Z" fill="#FCF7F1"/>
<path d="M918 4.85725V156.143C918 158.832 916.041 161 913.632 161H885.655C883.246 161 881.287 158.832 881.287 156.143V129.89C881.287 126.774 879.079 125.021 876.86 125.021C875.15 125.021 873.429 126.087 872.753 128.385L864.159 157.659C863.578 159.649 861.892 161 860.005 161H851.589C849.702 161 848.016 159.649 847.435 157.659L838.841 128.385C837.298 123.125 830.307 124.357 830.307 129.89V156.143C830.307 158.832 828.348 161 825.939 161H797.962C795.553 161 793.594 158.832 793.594 156.143V4.85725C793.594 2.168 795.553 6.12717e-06 797.962 6.12717e-06H831.731C833.63 6.12717e-06 835.316 1.3624 835.897 3.37639L851.637 58.1093C852.93 62.6348 858.675 62.623 859.957 58.1093L875.697 3.36454C876.278 1.35056 877.964 -0.0118408 879.863 -0.0118408H913.632C916.041 -0.0118408 918 2.15615 918 4.84541V4.85725Z" fill="#FCF7F1"/>
<path d="M788.763 4.85725V148.833C788.763 150.124 788.3 151.357 787.481 152.269L780.882 159.59C780.063 160.491 778.947 161 777.784 161H711.776C710.625 161 709.509 160.491 708.69 159.578L702.115 152.269C701.284 151.357 700.833 150.124 700.833 148.833V4.85725C700.833 2.16799 702.791 0 705.201 0H733.415C735.824 0 737.783 2.16799 737.783 4.85725V113.055C737.783 115.733 739.741 117.913 742.163 117.913H747.433C749.842 117.913 751.801 115.733 751.801 113.055V4.85725C751.801 2.16799 753.759 0 756.169 0H784.383C786.805 0 788.763 2.16799 788.763 4.85725Z" fill="#FCF7F1"/>
<path d="M599.145 0L608.309 10.1528V43.0873H561.459V53.8325C561.459 56.5218 563.417 58.7016 565.839 58.7016H599.145L608.309 68.8545V150.847L599.145 161H533.648L524.509 150.847V117.913H571.346V102.31H533.696L524.509 91.9205V10.1528L533.648 0H599.145Z" fill="#FCF7F1"/>
</svg>
